<?xml version="1.0" standalone="no"?>
<!DOCTYPE svg PUBLIC "-//W3C//DTD SVG 20010904//EN"
 "http://www.w3.org/TR/2001/REC-SVG-20010904/DTD/svg10.dtd">
<svg version="1.0" xmlns="http://www.w3.org/2000/svg"
 width="1576.000000pt" height="1155.000000pt" viewBox="0 0 1576.000000 1155.000000"
 preserveAspectRatio="xMidYMid meet">

<g transform="translate(0.000000,1155.000000) scale(0.100000,-0.100000)"
fill="#000000" stroke="none">
<path d="M260 6480 l0 -4810 1270 0 1270 0 2 1637 3 1636 1010 -1444 c555
-794 1070 -1531 1144 -1636 l135 -193 1549 0 1549 0 -35 47 c-19 27 -281 401
-584 833 -302 432 -908 1297 -1346 1922 -438 626 -797 1144 -797 1152 0 8 35
34 78 57 167 91 339 193 377 223 22 18 69 52 105 76 239 161 666 606 791 826
12 22 28 46 35 54 22 27 206 391 201 397 -4 3 0 11 7 18 21 21 91 246 131 418
78 339 84 569 24 971 -37 250 -65 337 -225 698 -116 262 -248 457 -481 715
-88 97 -347 337 -417 388 -23 17 -52 39 -64 51 -40 38 -143 103 -378 239 -244
142 -577 283 -864 365 -260 75 -676 141 -1000 160 -94 6 -884 10 -1827 10
l-1663 0 0 -4810z m3418 2885 c318 -47 565 -175 711 -368 22 -28 61 -79 87
-112 117 -151 204 -424 204 -643 0 -194 -85 -471 -188 -612 -140 -191 -222
-268 -387 -363 -114 -65 -330 -137 -414 -137 -16 0 -32 -4 -35 -9 -3 -5 -197
-9 -431 -10 l-425 -2 0 1135 0 1136 390 0 c292 0 415 -4 488 -15z"/>
<path d="M8982 11263 c-5 -16 -148 -406 -317 -868 -169 -462 -626 -1717 -1016
-2788 l-708 -1948 688 -987 c379 -543 756 -1084 840 -1202 l151 -215 1817 -5
1817 -5 287 -784 c159 -431 290 -785 292 -787 2 -2 609 -3 1350 -2 l1345 3
-534 1470 c-295 809 -540 1472 -545 1473 -5 2 -7 7 -4 12 3 4 -164 473 -371
1041 -207 569 -388 1066 -402 1104 -13 39 -114 315 -224 615 -110 300 -222
606 -248 680 -26 74 -181 502 -345 950 -163 448 -412 1130 -552 1515 -140 385
-260 712 -265 728 l-10 27 -1518 0 -1518 0 -10 -27z m1996 -4513 c254 -701
477 -1319 496 -1372 l36 -98 -1005 0 -1005 0 23 63 c13 34 239 655 502 1379
264 725 482 1314 486 1310 3 -4 213 -581 467 -1282z"/>
<path d="M1235 1356 c-154 -50 -271 -179 -304 -334 -69 -326 182 -606 503
-562 292 41 458 347 347 640 -37 99 -140 202 -241 242 -68 27 -242 35 -305 14z
m276 -60 c74 -30 112 -58 159 -117 62 -79 83 -146 83 -264 0 -80 -4 -112 -22
-158 -43 -110 -135 -200 -238 -232 -76 -24 -194 -22 -267 5 -79 30 -166 113
-208 198 -32 64 -33 72 -33 182 0 141 21 202 96 285 88 95 153 123 289 124 67
0 97 -4 141 -23z"/>
<path d="M2105 1357 c-97 -37 -146 -101 -147 -191 -1 -103 43 -156 202 -242
190 -103 230 -144 230 -239 0 -55 -18 -93 -62 -130 -44 -37 -72 -46 -144 -46
-79 0 -127 13 -186 50 -41 26 -48 28 -59 15 -19 -23 -1 -45 63 -77 153 -78
338 -43 412 76 43 70 47 140 12 211 -32 65 -76 101 -227 180 -157 84 -205 149
-179 245 29 108 194 146 334 77 57 -28 59 -28 73 -10 12 17 11 21 -7 36 -11 9
-46 26 -76 37 -62 24 -188 28 -239 8z"/>
<path d="M7475 1356 c-154 -50 -271 -179 -304 -334 -69 -326 182 -606 503
-562 292 41 458 347 347 640 -37 99 -140 202 -241 242 -68 27 -242 35 -305 14z
m276 -60 c74 -30 112 -58 159 -117 62 -79 83 -146 83 -264 0 -80 -4 -112 -22
-158 -43 -110 -135 -200 -238 -232 -76 -24 -194 -22 -267 5 -79 30 -166 113
-208 198 -32 64 -33 72 -33 182 0 141 21 202 96 285 88 95 153 123 289 124 67
0 97 -4 141 -23z"/>
<path d="M10230 1354 c-269 -72 -403 -389 -275 -651 38 -77 115 -157 186 -194
92 -46 217 -61 314 -36 l50 13 41 -59 c55 -78 85 -97 157 -97 50 0 57 2 57 20
0 17 -7 20 -49 20 -57 0 -86 19 -133 88 -29 42 -30 47 -14 56 139 83 226 237
226 400 -1 303 -272 517 -560 440z m225 -39 c114 -30 198 -104 252 -221 22
-48 28 -77 31 -155 5 -112 -10 -175 -60 -259 -32 -52 -131 -144 -149 -138 -5
2 -40 49 -77 105 -61 92 -69 100 -85 88 -17 -12 -14 -20 47 -111 79 -118 78
-119 -69 -119 -88 0 -107 4 -162 29 -160 73 -256 265 -225 450 41 250 257 393
497 331z"/>
<path d="M14330 1354 c-269 -72 -403 -389 -275 -651 56 -115 156 -195 282
-228 209 -55 416 43 510 240 61 129 58 284 -8 417 -90 180 -309 275 -509 222z
m225 -39 c114 -30 198 -104 252 -221 36 -77 44 -220 18 -310 -31 -112 -114
-207 -221 -256 -41 -19 -66 -23 -154 -23 -94 0 -111 3 -167 29 -160 74 -256
265 -225 450 41 250 257 393 497 331z"/>
<path d="M15213 1360 c-52 -12 -120 -57 -143 -96 -51 -82 -32 -184 46 -253 25
-22 84 -60 132 -85 107 -55 179 -105 203 -142 28 -44 34 -107 15 -159 -49
-126 -211 -162 -367 -82 -55 28 -70 32 -79 22 -16 -19 45 -62 121 -86 199 -62
381 38 381 211 0 108 -54 169 -230 260 -160 82 -202 127 -202 215 0 103 70
159 200 160 65 0 85 -5 138 -31 53 -26 64 -29 74 -16 17 20 -20 47 -101 72
-64 20 -131 24 -188 10z"/>
<path d="M260 915 l0 -445 30 0 30 0 0 195 0 195 104 0 104 0 123 -195 c120
-190 124 -195 156 -195 l34 0 -34 53 c-19 28 -75 116 -125 195 -51 78 -92 146
-92 150 0 5 18 14 41 21 93 28 154 123 153 237 -1 78 -32 138 -96 181 -64 42
-123 53 -288 53 l-140 0 0 -445z m350 373 c123 -52 155 -225 58 -315 -45 -43
-89 -53 -223 -53 l-125 0 0 196 0 197 128 -5 c80 -3 140 -11 162 -20z"/>
<path d="M2620 915 l0 -445 25 0 25 0 2 398 3 397 154 -302 154 -303 36 0 36
0 152 303 152 302 0 -397 1 -398 30 0 30 0 0 445 0 445 -37 0 -38 0 -153 -304
c-84 -167 -158 -311 -165 -320 -10 -14 -37 34 -172 304 l-160 320 -37 0 -38 0
0 -445z"/>
<path d="M3891 1336 c-6 -13 -74 -208 -152 -432 -78 -225 -144 -414 -146 -421
-4 -9 5 -13 25 -13 29 0 30 2 78 137 26 76 51 148 55 161 8 22 11 22 183 22
l174 0 55 -157 c54 -156 55 -158 86 -161 17 -2 31 -2 31 0 0 2 -70 201 -154
443 l-154 440 -36 3 c-31 3 -37 -1 -45 -22z m124 -265 l73 -221 -154 0 c-85 0
-154 4 -154 9 0 6 106 319 145 430 3 8 8 12 11 9 2 -3 38 -105 79 -227z"/>
<path d="M4440 916 l0 -446 25 0 25 0 0 417 c0 229 3 413 7 409 4 -4 107 -190
229 -414 l221 -407 41 -3 42 -3 0 445 0 446 -30 0 -30 0 0 -407 0 -408 -219
405 -220 405 -45 3 -46 3 0 -445z"/>
<path d="M5270 915 l0 -445 30 0 30 0 0 445 0 445 -30 0 -30 0 0 -445z"/>
<path d="M5560 916 l0 -446 25 0 25 0 0 417 c0 229 3 413 7 409 4 -4 107 -190
229 -414 l221 -407 41 -3 42 -3 0 445 0 446 -30 0 -30 0 0 -407 0 -408 -219
405 -220 405 -45 3 -46 3 0 -445z"/>
<path d="M6390 915 l0 -445 30 0 30 0 0 210 0 210 235 0 235 0 0 -210 0 -210
30 0 30 0 0 445 0 445 -30 0 -30 0 0 -205 0 -205 -235 0 -235 0 0 205 0 205
-30 0 -30 0 0 -445z"/>
<path d="M8686 1308 c-37 -100 -286 -823 -286 -830 0 -5 10 -8 23 -8 21 0 28
16 77 165 l54 165 179 -2 180 -3 56 -163 c50 -145 58 -162 78 -162 13 0 23 3
23 6 0 4 -59 176 -131 383 -72 207 -140 402 -151 434 -19 54 -22 57 -53 57
-30 0 -35 -4 -49 -42z m128 -221 c42 -123 76 -229 76 -235 0 -9 -44 -12 -161
-12 -123 0 -160 3 -157 13 14 53 154 457 159 457 4 0 41 -100 83 -223z"/>
<path d="M9240 910 l0 -440 25 0 25 0 0 200 0 200 109 0 109 0 127 -200 c109
-171 131 -200 152 -200 17 0 22 4 17 13 -4 6 -59 92 -121 190 -63 98 -116 184
-119 192 -4 9 7 18 36 26 161 48 215 265 95 384 -62 63 -112 75 -302 75 l-153
0 0 -440z m333 389 c47 -13 106 -63 123 -106 33 -77 5 -188 -57 -236 -49 -37
-100 -47 -231 -47 l-118 0 0 200 0 200 123 0 c67 0 139 -5 160 -11z"/>
<path d="M10972 1006 l3 -343 35 -68 c30 -58 43 -72 90 -99 51 -29 61 -31 155
-31 83 0 107 4 140 22 54 28 89 68 117 128 21 48 22 62 26 393 l4 342 -26 0
-26 0 0 -328 c0 -378 -4 -406 -69 -465 -45 -40 -93 -57 -166 -57 -102 0 -166
35 -208 114 -21 40 -22 52 -25 389 l-3 347 -26 0 -25 0 4 -344z"/>
<path d="M11770 910 l0 -440 25 0 25 0 0 440 0 440 -25 0 -25 0 0 -440z"/>
<path d="M11970 1330 c0 -19 7 -20 140 -20 l140 0 0 -420 0 -420 25 0 25 0 0
420 0 420 140 0 c133 0 140 1 140 20 0 20 -7 20 -305 20 -298 0 -305 0 -305
-20z"/>
<path d="M12720 910 l0 -440 280 0 280 0 0 25 0 25 -255 0 -255 0 0 190 0 190
165 0 c158 0 165 1 165 20 0 19 -7 20 -165 20 l-165 0 0 185 0 185 255 0 c248
0 255 1 255 20 0 20 -7 20 -280 20 l-280 0 0 -440z"/>
<path d="M13350 1330 c0 -19 7 -20 140 -20 l140 0 0 -420 0 -420 25 0 25 0 0
420 0 420 140 0 c133 0 140 1 140 20 0 20 -7 20 -305 20 -298 0 -305 0 -305
-20z"/>
</g>
</svg>
