<?xml version="1.0" standalone="no"?>
<!DOCTYPE svg PUBLIC "-//W3C//DTD SVG 20010904//EN"
 "http://www.w3.org/TR/2001/REC-SVG-20010904/DTD/svg10.dtd">
<svg version="1.0" xmlns="http://www.w3.org/2000/svg"
 width="1576.000000pt" height="1012.000000pt" viewBox="0 0 1576.000000 1012.000000"
 preserveAspectRatio="xMidYMid meet">

<g transform="translate(0.000000,1012.000000) scale(0.100000,-0.100000)"
fill="#000000" stroke="none">
<path d="M260 5050 l0 -4810 1270 0 1270 0 2 1637 3 1636 1010 -1444 c555
-794 1070 -1531 1144 -1636 l135 -193 1549 0 1549 0 -35 47 c-19 27 -281 401
-584 833 -302 432 -908 1297 -1346 1922 -438 626 -797 1144 -797 1152 0 8 35
34 78 57 167 91 339 193 377 223 22 18 69 52 105 76 239 161 666 606 791 826
12 22 28 46 35 54 22 27 206 391 201 397 -4 3 0 11 7 18 21 21 91 246 131 418
78 339 84 569 24 971 -37 250 -65 337 -225 698 -116 262 -248 457 -481 715
-88 97 -347 337 -417 388 -23 17 -52 39 -64 51 -40 38 -143 103 -378 239 -244
142 -577 283 -864 365 -260 75 -676 141 -1000 160 -94 6 -884 10 -1827 10
l-1663 0 0 -4810z m3418 2885 c318 -47 565 -175 711 -368 22 -28 61 -79 87
-112 117 -151 204 -424 204 -643 0 -194 -85 -471 -188 -612 -140 -191 -222
-268 -387 -363 -114 -65 -330 -137 -414 -137 -16 0 -32 -4 -35 -9 -3 -5 -197
-9 -431 -10 l-425 -2 0 1135 0 1136 390 0 c292 0 415 -4 488 -15z"/>
<path d="M8982 9833 c-5 -16 -148 -406 -317 -868 -169 -462 -626 -1717 -1016
-2788 l-708 -1948 688 -987 c379 -543 756 -1084 840 -1202 l151 -215 1817 -5
1817 -5 287 -784 c159 -431 290 -785 292 -787 2 -2 609 -3 1350 -2 l1345 3
-534 1470 c-295 809 -540 1472 -545 1473 -5 2 -7 7 -4 12 3 4 -164 473 -371
1041 -207 569 -388 1066 -402 1104 -13 39 -114 315 -224 615 -110 300 -222
606 -248 680 -26 74 -181 502 -345 950 -163 448 -412 1130 -552 1515 -140 385
-260 712 -265 728 l-10 27 -1518 0 -1518 0 -10 -27z m1996 -4513 c254 -701
477 -1319 496 -1372 l36 -98 -1005 0 -1005 0 23 63 c13 34 239 655 502 1379
264 725 482 1314 486 1310 3 -4 213 -581 467 -1282z"/>
</g>
</svg>
